<svg width="45" height="41" viewBox="0 0 45 41" fill="none" xmlns="http://www.w3.org/2000/svg">
<path d="M17 29.1875C17 28.0208 17.3958 27.0417 18.1875 26.25C19.0208 25.4167 20.0208 25 21.1875 25H30.75L29.125 20.375C28.4583 18.6667 27.7917 17.0625 27.125 15.5625C26.5 14.0208 25.7708 12.625 24.9375 11.375C24.1875 10.125 23.3333 9.45833 22.375 9.375C21.375 9.45833 20.4792 10.125 19.6875 11.375C18.8958 12.625 18.1667 14.0208 17.5 15.5625C16.875 17.0625 16.2292 18.6667 15.5625 20.375L9.625 36.625C9.20833 37.5 8.66667 38.2292 8 38.8125C7.375 39.3542 6.41667 39.625 5.125 39.625C3.91667 39.625 2.91667 39.2083 2.125 38.375C1.375 37.5417 1.04167 36.5417 1.125 35.375C1.16667 34.8333 1.29167 34.3333 1.5 33.875L8.375 16.125C10.2917 11.4583 12.2083 7.6875 14.125 4.8125C16 1.97917 18.75 0.541667 22.375 0.5C25.9583 0.541667 28.6875 1.97917 30.5625 4.8125C32.4792 7.60417 34.3958 11.375 36.3125 16.125L43.1875 33.875C43.3958 34.3333 43.5208 34.8333 43.5625 35.375C43.6458 36.5417 43.2917 37.5417 42.5 38.375C41.75 39.2083 40.7708 39.625 39.5625 39.625C38.1875 39.625 37.1667 39.3542 36.5 38.8125C35.875 38.2292 35.3542 37.5 34.9375 36.625L33.75 33.375H21.1875C20.0208 33.375 19.0417 32.9583 18.25 32.125C17.4167 31.3333 17 30.3542 17 29.1875Z" fill="#34547A"/>
<path d="M18.1875 26.25L18.5411 26.6036L18.1875 26.25ZM30.75 25V25.5C30.9121 25.5 31.0642 25.4214 31.158 25.2891C31.2517 25.1568 31.2755 24.9872 31.2217 24.8343L30.75 25ZM29.125 20.375L29.5967 20.2093C29.5948 20.2039 29.5929 20.1985 29.5908 20.1932L29.125 20.375ZM27.125 15.5625L26.6616 15.7504C26.6637 15.7555 26.6659 15.7605 26.6681 15.7656L27.125 15.5625ZM24.9375 11.375L24.5088 11.6322C24.5128 11.639 24.5171 11.6458 24.5215 11.6524L24.9375 11.375ZM22.375 9.375L22.4183 8.87688C22.3901 8.87443 22.3617 8.87437 22.3335 8.87673L22.375 9.375ZM17.5 15.5625L17.041 15.364L17.0385 15.3702L17.5 15.5625ZM15.5625 20.375L15.0966 20.1932L15.0929 20.2034L15.5625 20.375ZM9.625 36.625L10.0764 36.84C10.0832 36.8258 10.0892 36.8113 10.0946 36.7966L9.625 36.625ZM8 38.8125L8.32747 39.1903L8.32925 39.1888L8 38.8125ZM2.125 38.375L1.75322 38.7096L1.7625 38.7194L2.125 38.375ZM1.125 35.375L0.626465 35.3367L0.626271 35.3394L1.125 35.375ZM1.5 33.875L1.95518 34.0819C1.95912 34.0732 1.96281 34.0645 1.96625 34.0556L1.5 33.875ZM8.375 16.125L7.9124 15.935L7.90875 15.9444L8.375 16.125ZM14.125 4.8125L14.541 5.08985L14.542 5.08843L14.125 4.8125ZM22.375 0.5L22.3808 -9.98688e-05L22.3693 3.30262e-05L22.375 0.5ZM30.5625 4.8125L30.1455 5.08847L30.1503 5.0955L30.5625 4.8125ZM36.3125 16.125L36.7788 15.9444L36.7762 15.9379L36.3125 16.125ZM43.1875 33.875L42.7213 34.0556C42.7247 34.0645 42.7284 34.0732 42.7323 34.0819L43.1875 33.875ZM43.5625 35.375L44.0612 35.3394L44.061 35.3367L43.5625 35.375ZM42.5 38.375L42.1374 38.0305L42.1284 38.0405L42.5 38.375ZM36.5 38.8125L36.1588 39.178C36.1672 39.1858 36.1758 39.1933 36.1847 39.2006L36.5 38.8125ZM34.9375 36.625L34.4679 36.7966C34.4733 36.8113 34.4793 36.8258 34.4861 36.84L34.9375 36.625ZM33.75 33.375L34.2196 33.2034C34.1476 33.0062 33.96 32.875 33.75 32.875V33.375ZM18.25 32.125L18.6125 31.7806C18.6066 31.7744 18.6006 31.7684 18.5944 31.7625L18.25 32.125ZM17.5 29.1875C17.5 28.1472 17.8475 27.2971 18.5411 26.6036L17.8339 25.8964C16.9442 26.7862 16.5 27.8944 16.5 29.1875H17.5ZM18.5411 26.6036C19.2817 25.8629 20.1549 25.5 21.1875 25.5V24.5C19.8867 24.5 18.76 24.9704 17.8339 25.8964L18.5411 26.6036ZM21.1875 25.5H30.75V24.5H21.1875V25.5ZM31.2217 24.8343L29.5967 20.2093L28.6533 20.5407L30.2783 25.1657L31.2217 24.8343ZM29.5908 20.1932C28.9216 18.4785 28.252 16.8672 27.5819 15.3594L26.6681 15.7656C27.3313 17.2578 27.995 18.8548 28.6592 20.5568L29.5908 20.1932ZM27.5884 15.3746C26.952 13.8049 26.2075 12.3786 25.3535 11.0976L24.5215 11.6524C25.3342 12.8714 26.048 14.2367 26.6616 15.7504L27.5884 15.3746ZM25.3662 11.1178C24.5779 9.80389 23.6059 8.98015 22.4183 8.87688L22.3317 9.87312C23.0608 9.93652 23.7971 10.4461 24.5088 11.6322L25.3662 11.1178ZM22.3335 8.87673C21.1137 8.97838 20.0991 9.79058 19.2651 11.1075L20.1099 11.6425C20.8592 10.4594 21.6363 9.93829 22.4165 9.87327L22.3335 8.87673ZM19.2651 11.1075C18.4577 12.3822 17.7167 13.8016 17.0411 15.364L17.9589 15.761C18.6166 14.2401 19.3339 12.8678 20.1099 11.6425L19.2651 11.1075ZM17.0385 15.3702C16.4118 16.8741 15.7646 18.4818 15.0967 20.1932L16.0283 20.5568C16.6937 18.8515 17.3382 17.2509 17.9615 15.7548L17.0385 15.3702ZM15.0929 20.2034L9.15537 36.4534L10.0946 36.7966L16.0321 20.5466L15.0929 20.2034ZM9.17357 36.41C8.78343 37.2293 8.28147 37.9018 7.67075 38.4362L8.32925 39.1888C9.05186 38.5565 9.63324 37.7707 10.0764 36.84L9.17357 36.41ZM7.67253 38.4347C7.17748 38.8637 6.36073 39.125 5.125 39.125V40.125C6.4726 40.125 7.57252 39.8446 8.32747 39.1903L7.67253 38.4347ZM5.125 39.125C4.04584 39.125 3.17948 38.759 2.4875 38.0306L1.7625 38.7194C2.65386 39.6576 3.78749 40.125 5.125 40.125V39.125ZM2.49665 38.0405C1.84185 37.313 1.54961 36.4484 1.62373 35.4106L0.626271 35.3394C0.533728 36.635 0.908153 37.7704 1.75335 38.7095L2.49665 38.0405ZM1.62353 35.4133C1.66107 34.9253 1.77289 34.483 1.95518 34.0819L1.04482 33.6681C0.810446 34.1837 0.672267 34.7413 0.626473 35.3367L1.62353 35.4133ZM1.96625 34.0556L8.84125 16.3056L7.90875 15.9444L1.03375 33.6944L1.96625 34.0556ZM8.83751 16.315C10.7468 11.6663 12.649 7.92793 14.541 5.08985L13.709 4.53515C11.7677 7.44707 9.83655 11.2504 7.91249 15.935L8.83751 16.315ZM14.542 5.08843C16.3185 2.40395 18.9083 1.03988 22.3807 0.999967L22.3693 3.30262e-05C18.5917 0.0434533 15.6815 1.55438 13.708 4.53657L14.542 5.08843ZM22.3692 0.999966C25.7976 1.03983 28.3678 2.40206 30.1455 5.08843L30.9795 4.53657C29.0072 1.55627 26.1191 0.0435018 22.3808 3.37986e-05L22.3692 0.999966ZM30.1503 5.0955C32.0388 7.84608 33.9396 11.5805 35.8488 16.3121L36.7762 15.9379C34.8521 11.1695 32.9196 7.36225 30.9747 4.5295L30.1503 5.0955ZM35.8463 16.3056L42.7213 34.0556L43.6537 33.6944L36.7787 15.9444L35.8463 16.3056ZM42.7323 34.0819C42.9146 34.483 43.0264 34.9253 43.064 35.4133L44.061 35.3367C44.0152 34.7413 43.8771 34.1837 43.6427 33.6681L42.7323 34.0819ZM43.0638 35.4106C43.1373 36.4399 42.8304 37.3012 42.1375 38.0306L42.8625 38.7194C43.7529 37.7821 44.1544 36.6434 44.0612 35.3394L43.0638 35.4106ZM42.1284 38.0405C41.4812 38.7596 40.6415 39.125 39.5625 39.125V40.125C40.9002 40.125 42.0188 39.657 42.8716 38.7095L42.1284 38.0405ZM39.5625 39.125C38.2378 39.125 37.3531 38.8614 36.8153 38.4244L36.1847 39.2006C36.9802 39.8469 38.1372 40.125 39.5625 40.125V39.125ZM36.8412 38.447C36.2678 37.9118 35.7822 37.2359 35.3889 36.41L34.4861 36.84C34.9261 37.7641 35.4822 38.5465 36.1588 39.178L36.8412 38.447ZM35.4071 36.4534L34.2196 33.2034L33.2804 33.5466L34.4679 36.7966L35.4071 36.4534ZM33.75 32.875H21.1875V33.875H33.75V32.875ZM21.1875 32.875C20.1556 32.875 19.3082 32.5129 18.6125 31.7806L17.8875 32.4694C18.7752 33.4037 19.8861 33.875 21.1875 33.875V32.875ZM18.5944 31.7625C17.8621 31.0668 17.5 30.2194 17.5 29.1875H16.5C16.5 30.4889 16.9713 31.5998 17.9056 32.4875L18.5944 31.7625Z" fill="white"/>
</svg>
