<svg width="13" height="12" viewBox="0 0 13 12" fill="none"
  xmlns="http://www.w3.org/2000/svg">
  <path d="M5.0625 8.24023C5.0625 7.91211 5.17383 7.63672 5.39648 7.41406C5.63086 7.17969 5.91211 7.0625 6.24023 7.0625H8.92969L8.47266 5.76172C8.28516 5.28125 8.09766 4.83008 7.91016 4.4082C7.73438 3.97461 7.5293 3.58203 7.29492 3.23047C7.08398 2.87891 6.84375 2.69141 6.57422 2.66797C6.29297 2.69141 6.04102 2.87891 5.81836 3.23047C5.5957 3.58203 5.39062 3.97461 5.20312 4.4082C5.02734 4.83008 4.8457 5.28125 4.6582 5.76172L2.98828 10.332C2.87109 10.5781 2.71875 10.7832 2.53125 10.9473C2.35547 11.0996 2.08594 11.1758 1.72266 11.1758C1.38281 11.1758 1.10156 11.0586 0.878906 10.8242C0.667969 10.5898 0.574219 10.3086 0.597656 9.98047C0.609375 9.82812 0.644531 9.6875 0.703125 9.55859L2.63672 4.56641C3.17578 3.25391 3.71484 2.19336 4.25391 1.38477C4.78125 0.587891 5.55469 0.183594 6.57422 0.171875C7.58203 0.183594 8.34961 0.587891 8.87695 1.38477C9.41602 2.16992 9.95508 3.23047 10.4941 4.56641L12.4277 9.55859C12.4863 9.6875 12.5215 9.82812 12.5332 9.98047C12.5566 10.3086 12.457 10.5898 12.2344 10.8242C12.0234 11.0586 11.748 11.1758 11.4082 11.1758C11.0215 11.1758 10.7344 11.0996 10.5469 10.9473C10.3711 10.7832 10.2246 10.5781 10.1074 10.332L9.77344 9.41797H6.24023C5.91211 9.41797 5.63672 9.30078 5.41406 9.06641C5.17969 8.84375 5.0625 8.56836 5.0625 8.24023Z" fill="#ffffff" stroke="#34547A"/>
</svg>