<svg width="109" height="12" viewBox="0 0 109 12" fill="none"
  xmlns="http://www.w3.org/2000/svg">
  <path d="M5.0625 8.24023C5.0625 7.91211 5.17383 7.63672 5.39648 7.41406C5.63086 7.17969 5.91211 7.0625 6.24023 7.0625H8.92969L8.47266 5.76172C8.28516 5.28125 8.09766 4.83008 7.91016 4.4082C7.73438 3.97461 7.5293 3.58203 7.29492 3.23047C7.08398 2.87891 6.84375 2.69141 6.57422 2.66797C6.29297 2.69141 6.04102 2.87891 5.81836 3.23047C5.5957 3.58203 5.39062 3.97461 5.20312 4.4082C5.02734 4.83008 4.8457 5.28125 4.6582 5.76172L2.98828 10.332C2.87109 10.5781 2.71875 10.7832 2.53125 10.9473C2.35547 11.0996 2.08594 11.1758 1.72266 11.1758C1.38281 11.1758 1.10156 11.0586 0.878906 10.8242C0.667969 10.5898 0.574219 10.3086 0.597656 9.98047C0.609375 9.82812 0.644531 9.6875 0.703125 9.55859L2.63672 4.56641C3.17578 3.25391 3.71484 2.19336 4.25391 1.38477C4.78125 0.587891 5.55469 0.183594 6.57422 0.171875C7.58203 0.183594 8.34961 0.587891 8.87695 1.38477C9.41602 2.16992 9.95508 3.23047 10.4941 4.56641L12.4277 9.55859C12.4863 9.6875 12.5215 9.82812 12.5332 9.98047C12.5566 10.3086 12.457 10.5898 12.2344 10.8242C12.0234 11.0586 11.748 11.1758 11.4082 11.1758C11.0215 11.1758 10.7344 11.0996 10.5469 10.9473C10.3711 10.7832 10.2246 10.5781 10.1074 10.332L9.77344 9.41797H6.24023C5.91211 9.41797 5.63672 9.30078 5.41406 9.06641C5.17969 8.84375 5.0625 8.56836 5.0625 8.24023ZM19.8984 2.7207C20.5078 2.7207 21.1055 2.79102 21.6914 2.93164C22.2891 3.07227 22.8574 3.2832 23.3965 3.56445C23.9355 3.83398 24.4102 4.19727 24.8203 4.6543C25.2422 5.11133 25.4707 5.65625 25.5059 6.28906V7.02734V10.0332C25.4355 10.7363 25.0488 11.1172 24.3457 11.1758C24.0176 11.1758 23.7305 11.0703 23.4844 10.8594C23.25 10.6367 23.1328 10.3613 23.1328 10.0332V9.25977V6.83398C23.1094 6.4707 22.9688 6.17188 22.7109 5.9375C22.4648 5.69141 22.1836 5.49805 21.8672 5.35742C21.5625 5.2168 21.2402 5.11133 20.9004 5.04102C20.5723 4.9707 20.2383 4.93555 19.8984 4.93555C19.5586 4.93555 19.2188 4.9707 18.8789 5.04102C18.5508 5.11133 18.2285 5.2168 17.9121 5.35742C17.6074 5.49805 17.3262 5.69141 17.0684 5.9375C16.8223 6.17188 16.6875 6.4707 16.6641 6.83398V9.25977V10.0332C16.6055 10.7363 16.2246 11.1172 15.5215 11.1758C15.1934 11.1758 14.9062 11.0703 14.6602 10.8594C14.4258 10.6367 14.3086 10.3613 14.3086 10.0332V7.02734V6.28906C14.3438 5.65625 14.5664 5.11133 14.9766 4.6543C15.3867 4.19727 15.8613 3.83398 16.4004 3.56445C16.9395 3.2832 17.502 3.07227 18.0879 2.93164C18.6855 2.79102 19.2891 2.7207 19.8984 2.7207ZM31.377 10.9648C30.3457 10.9297 29.5664 10.6895 29.0391 10.2441C28.5117 9.78711 28.1309 9.27734 27.8965 8.71484C27.6621 8.14062 27.5449 7.56055 27.5449 6.97461C27.5449 6.36523 27.6562 5.7793 27.8789 5.2168C28.1133 4.64258 28.4941 4.13281 29.0215 3.6875C29.5605 3.23047 30.2402 2.99609 31.0605 2.98438H36.7559C37.5762 2.99609 38.25 3.23047 38.7773 3.6875C39.3164 4.13281 39.6973 4.64258 39.9199 5.2168C40.1543 5.7793 40.2715 6.36523 40.2715 6.97461C40.2715 7.56055 40.1543 8.14062 39.9199 8.71484C39.6855 9.27734 39.3047 9.78711 38.7773 10.2441C38.25 10.6895 37.4707 10.9297 36.4395 10.9648H31.377ZM30.9902 5.33984C30.7676 5.33984 30.5742 5.43359 30.4102 5.62109C30.2461 5.79688 30.123 6.00781 30.041 6.25391C29.9707 6.48828 29.9355 6.72266 29.9355 6.95703C29.9355 7.20312 29.9707 7.44922 30.041 7.69531C30.123 7.92969 30.2461 8.14062 30.4102 8.32812C30.5742 8.50391 30.7676 8.59766 30.9902 8.60938H36.8262C37.0488 8.59766 37.2422 8.50391 37.4062 8.32812C37.5703 8.14062 37.6875 7.92969 37.7578 7.69531C37.8398 7.44922 37.8809 7.20312 37.8809 6.95703C37.8809 6.72266 37.8398 6.48828 37.7578 6.25391C37.6875 6.00781 37.5703 5.79688 37.4062 5.62109C37.2422 5.43359 37.0488 5.33984 36.8262 5.33984H30.9902ZM52.084 1.45508C52.1543 0.751953 52.541 0.371094 53.2441 0.3125C53.5723 0.3125 53.8535 0.423828 54.0879 0.646484C54.334 0.857422 54.457 1.12695 54.457 1.45508V9.82227C54.4453 10.1504 54.3223 10.4258 54.0879 10.6484C53.8535 10.8594 53.5723 10.9648 53.2441 10.9648H45.8613C44.8301 10.9297 44.0508 10.6895 43.5234 10.2441C42.9961 9.78711 42.6152 9.27734 42.3809 8.71484C42.1465 8.14062 42.0293 7.56055 42.0293 6.97461C42.0293 6.36523 42.1406 5.7793 42.3633 5.2168C42.5977 4.64258 42.9785 4.13281 43.5059 3.6875C44.0449 3.23047 44.7246 2.99609 45.5449 2.98438H49.9746C50.3027 2.98438 50.5781 3.10156 50.8008 3.33594C51.0352 3.55859 51.1523 3.83398 51.1523 4.16211C51.1523 4.49023 51.0352 4.77148 50.8008 5.00586C50.5781 5.22852 50.3027 5.33984 49.9746 5.33984H45.4746C45.252 5.33984 45.0586 5.43359 44.8945 5.62109C44.7305 5.79688 44.6074 6.00781 44.5254 6.25391C44.4551 6.48828 44.4199 6.72266 44.4199 6.95703C44.4199 7.20312 44.4551 7.44922 44.5254 7.69531C44.6074 7.92969 44.7305 8.14062 44.8945 8.32812C45.0586 8.50391 45.252 8.59766 45.4746 8.60938H51.627C51.9316 8.59766 52.084 8.44531 52.084 8.15234V1.45508ZM60.416 10.9648C59.3848 10.9297 58.6055 10.6895 58.0781 10.2441C57.5508 9.78711 57.1699 9.27734 56.9355 8.71484C56.7012 8.14062 56.584 7.56055 56.584 6.97461C56.584 6.36523 56.6953 5.7793 56.918 5.2168C57.1523 4.64258 57.5332 4.13281 58.0605 3.6875C58.5996 3.23047 59.2793 2.99609 60.0996 2.98438H65.7949C66.6152 2.99609 67.2891 3.23047 67.8164 3.6875C68.3555 4.13281 68.7363 4.64258 68.959 5.2168C69.1934 5.7793 69.3105 6.36523 69.3105 6.97461C69.3105 7.56055 69.1934 8.14062 68.959 8.71484C68.7246 9.27734 68.3438 9.78711 67.8164 10.2441C67.2891 10.6895 66.5098 10.9297 65.4785 10.9648H60.416ZM60.0293 5.33984C59.8066 5.33984 59.6133 5.43359 59.4492 5.62109C59.2852 5.79688 59.1621 6.00781 59.0801 6.25391C59.0098 6.48828 58.9746 6.72266 58.9746 6.95703C58.9746 7.20312 59.0098 7.44922 59.0801 7.69531C59.1621 7.92969 59.2852 8.14062 59.4492 8.32812C59.6133 8.50391 59.8066 8.59766 60.0293 8.60938H65.8652C66.0879 8.59766 66.2812 8.50391 66.4453 8.32812C66.6094 8.14062 66.7266 7.92969 66.7969 7.69531C66.8789 7.44922 66.9199 7.20312 66.9199 6.95703C66.9199 6.72266 66.8789 6.48828 66.7969 6.25391C66.7266 6.00781 66.6094 5.79688 66.4453 5.62109C66.2812 5.43359 66.0879 5.33984 65.8652 5.33984H60.0293ZM71.7012 5.19922C71.9238 4.63672 72.2988 4.13281 72.8262 3.6875C73.3652 3.23047 74.0449 2.99609 74.8652 2.98438H81.4746C81.8027 2.98438 82.0781 3.10156 82.3008 3.33594C82.5352 3.55859 82.6523 3.83398 82.6523 4.16211C82.6523 4.49023 82.5352 4.77148 82.3008 5.00586C82.0781 5.22852 81.8027 5.33984 81.4746 5.33984H74.7949C74.5723 5.33984 74.3789 5.43359 74.2148 5.62109C74.0508 5.79688 73.9219 6.00781 73.8281 6.25391C73.7461 6.5 73.7051 6.73438 73.7051 6.95703V10.0332C73.6348 10.7363 73.248 11.1172 72.5449 11.1758C72.2168 11.1758 71.9297 11.0703 71.6836 10.8594C71.4492 10.6367 71.332 10.3613 71.332 10.0332V6.97461H71.3496C71.3496 6.36523 71.4668 5.77344 71.7012 5.19922ZM87.9961 10.9648C86.9648 10.9297 86.1855 10.6895 85.6582 10.2441C85.1309 9.78711 84.75 9.27734 84.5156 8.71484C84.2812 8.14062 84.1641 7.56055 84.1641 6.97461C84.1641 6.36523 84.2754 5.7793 84.498 5.2168C84.7324 4.64258 85.1133 4.13281 85.6406 3.6875C86.1797 3.23047 86.8594 2.99609 87.6797 2.98438H94.3594C94.6875 2.98438 94.9629 3.0957 95.1855 3.31836C95.4199 3.5293 95.5371 3.78711 95.5371 4.0918C95.5371 4.4082 95.4199 4.67773 95.1855 4.90039C94.9629 5.11133 94.6875 5.2168 94.3594 5.2168H87.7852C87.5273 5.2168 87.2988 5.30469 87.0996 5.48047C86.9121 5.65625 86.7715 5.88477 86.6777 6.16602C86.5957 6.44727 86.5547 6.72266 86.5547 6.99219C86.5547 7.28516 86.5957 7.57227 86.6777 7.85352C86.7715 8.13477 86.9121 8.36328 87.0996 8.53906C87.2988 8.70312 87.5273 8.79102 87.7852 8.80273H94.3594C94.6875 8.80273 94.9629 8.9082 95.1855 9.11914C95.4199 9.33008 95.5371 9.58203 95.5371 9.875C95.5371 10.1797 95.4199 10.4375 95.1855 10.6484C94.9629 10.8594 94.6875 10.9648 94.3594 10.9648H87.9961ZM95.3262 6.93945C95.3262 7.16211 95.2266 7.35547 95.0273 7.51953C94.8516 7.67188 94.6289 7.74805 94.3594 7.74805H88.6113C88.3418 7.74805 88.1133 7.67188 87.9258 7.51953C87.7383 7.35547 87.6445 7.16211 87.6445 6.93945C87.6445 6.72852 87.7383 6.54102 87.9258 6.37695C88.1133 6.22461 88.3418 6.14844 88.6113 6.14844H94.3594C94.6289 6.14844 94.8574 6.23047 95.0449 6.39453C95.2324 6.54688 95.3262 6.72852 95.3262 6.93945ZM101.162 10.9648C100.131 10.9297 99.3516 10.6895 98.8242 10.2441C98.2969 9.78711 97.916 9.27734 97.6816 8.71484C97.4473 8.14062 97.3301 7.56055 97.3301 6.97461C97.3301 6.36523 97.4414 5.7793 97.6641 5.2168C97.8984 4.64258 98.2793 4.13281 98.8066 3.6875C99.3457 3.23047 100.025 2.99609 100.846 2.98438H107.525C107.854 2.98438 108.129 3.0957 108.352 3.31836C108.586 3.5293 108.703 3.78711 108.703 4.0918C108.703 4.4082 108.586 4.67773 108.352 4.90039C108.129 5.11133 107.854 5.2168 107.525 5.2168H100.951C100.693 5.2168 100.465 5.30469 100.266 5.48047C100.078 5.65625 99.9375 5.88477 99.8438 6.16602C99.7617 6.44727 99.7207 6.72266 99.7207 6.99219C99.7207 7.28516 99.7617 7.57227 99.8438 7.85352C99.9375 8.13477 100.078 8.36328 100.266 8.53906C100.465 8.70312 100.693 8.79102 100.951 8.80273H107.525C107.854 8.80273 108.129 8.9082 108.352 9.11914C108.586 9.33008 108.703 9.58203 108.703 9.875C108.703 10.1797 108.586 10.4375 108.352 10.6484C108.129 10.8594 107.854 10.9648 107.525 10.9648H101.162ZM108.492 6.93945C108.492 7.16211 108.393 7.35547 108.193 7.51953C108.018 7.67188 107.795 7.74805 107.525 7.74805H101.777C101.508 7.74805 101.279 7.67188 101.092 7.51953C100.904 7.35547 100.811 7.16211 100.811 6.93945C100.811 6.72852 100.904 6.54102 101.092 6.37695C101.279 6.22461 101.508 6.14844 101.777 6.14844H107.525C107.795 6.14844 108.023 6.23047 108.211 6.39453C108.398 6.54688 108.492 6.72852 108.492 6.93945Z" fill="#34547A"/>
</svg>