<?xml version="1.0" encoding="utf-8"?><!DOCTYPE svg PUBLIC "-//W3C//DTD SVG 1.1//EN" "http://www.w3.org/Graphics/SVG/1.1/DTD/svg11.dtd"><svg viewBox="0 0 512 512" xmlns="http://www.w3.org/2000/svg" xmlns:xlink="http://www.w3.org/1999/xlink"><style>:root>svg{display:none}:root>svg:target{display:block}</style><svg fill="none" viewBox="0 0 45 41" id="A" xmlns="http://www.w3.org/2000/svg"><path d="M17 29.188c0-1.167.396-2.146 1.188-2.938.833-.833 1.833-1.25 3-1.25h9.562l-1.625-4.625a113.183 113.183 0 00-2-4.813 23.318 23.318 0 00-2.188-4.187c-.75-1.25-1.604-1.917-2.562-2-1 .083-1.896.75-2.688 2a30.278 30.278 0 00-2.187 4.188c-.625 1.5-1.27 3.104-1.938 4.812l-5.937 16.25c-.417.875-.958 1.604-1.625 2.188-.625.541-1.583.812-2.875.812-1.208 0-2.208-.417-3-1.25-.75-.833-1.083-1.833-1-3a4.413 4.413 0 01.375-1.5l6.875-17.75c1.917-4.667 3.833-8.438 5.75-11.313C16 1.98 18.75.543 22.375.5c3.583.042 6.313 1.48 8.188 4.313 1.916 2.791 3.833 6.562 5.75 11.312l6.874 17.75c.209.458.334.958.376 1.5.083 1.167-.271 2.167-1.063 3-.75.833-1.73 1.25-2.938 1.25-1.374 0-2.395-.27-3.062-.813-.625-.583-1.146-1.312-1.563-2.187l-1.187-3.25H21.187c-1.166 0-2.145-.417-2.937-1.25-.833-.792-1.25-1.77-1.25-2.938z" fill="#34547A"/><path d="M18.188 26.25l.353.354-.354-.354zM30.75 25v.5a.5.5 0 00.472-.666L30.75 25zm-1.625-4.625l.472-.166-.006-.016-.466.182zm-2-4.813l-.463.188.006.016.457-.204zm-2.188-4.187l-.428.257a.426.426 0 00.012.02l.416-.277zm-2.562-2l.043-.498a.5.5 0 00-.084 0l.041.498zM17.5 15.563l-.459-.199-.003.006.462.193zm-1.938 4.812l-.465-.182-.004.01.47.172zm-5.937 16.25l.451.215a.498.498 0 00.019-.043l-.47-.172zM8 38.813l.327.377.002-.001L8 38.812zm-5.875-.438l-.372.335.01.01.362-.345zm-1-3l-.499-.038v.002l.499.036zm.375-1.5l.455.207a.504.504 0 00.011-.026l-.466-.181zm6.875-17.75l-.463-.19-.003.01.466.18zm5.75-11.313l.416.278.001-.002-.417-.276zM22.375.5l.006-.5h-.012l.006.5zm8.188 4.313l-.418.275.005.008.413-.284zm5.75 11.312l.466-.18-.003-.007-.464.187zm6.874 17.75l-.466.18a.503.503 0 00.011.027l.456-.207zm.376 1.5l.498-.036v-.002l-.498.038zm-1.063 3l-.363-.344-.009.01.372.334zm-6 .438l-.341.365a.558.558 0 00.026.023l.315-.389zm-1.563-2.188l-.47.172c.006.014.012.029.02.043l.45-.215zm-1.187-3.25l.47-.172a.5.5 0 00-.47-.328v.5zm-15.5-1.25l.363-.344a.515.515 0 00-.019-.018l-.344.362zm-.75-2.938c0-1.04.348-1.89 1.041-2.583l-.707-.708c-.89.89-1.334 1.998-1.334 3.291h1zm1.041-2.583c.74-.741 1.614-1.104 2.646-1.104v-1c-1.3 0-2.427.47-3.353 1.396l.707.708zm2.646-1.104h9.563v-1h-9.563v1zm10.035-.666l-1.625-4.625-.944.332 1.625 4.625.944-.332zm-1.631-4.64a113.77 113.77 0 00-2.01-4.835l-.913.407c.663 1.492 1.327 3.089 1.991 4.79l.932-.363zm-2.003-4.82a23.818 23.818 0 00-2.235-4.276l-.832.554a22.81 22.81 0 012.14 4.098l.927-.375zm-2.222-4.256c-.788-1.314-1.76-2.138-2.948-2.241l-.086.996c.729.064 1.465.573 2.177 1.76l.857-.515zm-3.032-2.241c-1.22.101-2.235.914-3.069 2.23l.845.536c.75-1.184 1.526-1.705 2.306-1.77l-.082-.996zm-3.069 2.23a30.765 30.765 0 00-2.224 4.257l.918.397a29.785 29.785 0 012.15-4.118l-.844-.536zm-2.227 4.263a229.207 229.207 0 00-1.941 4.823l.931.364a228.4 228.4 0 011.934-4.802l-.924-.385zm-1.945 4.833l-5.938 16.25.94.344 5.937-16.25-.94-.344zM9.173 36.41c-.39.82-.892 1.492-1.502 2.026l.658.753c.723-.633 1.304-1.418 1.747-2.349l-.902-.43zm-1.5 2.025c-.496.429-1.312.69-2.548.69v1c1.348 0 2.448-.28 3.202-.935l-.654-.755zm-2.548.69c-1.08 0-1.946-.366-2.638-1.094l-.725.688c.892.939 2.025 1.406 3.363 1.406v-1zm-2.628-1.084c-.655-.728-.947-1.593-.873-2.63l-.998-.072c-.092 1.296.282 2.431 1.127 3.37l.744-.669zm-.873-2.628c.037-.488.149-.93.331-1.331l-.91-.414a4.912 4.912 0 00-.419 1.669l.998.076zm.342-1.357l6.875-17.75-.932-.362-6.875 17.75.932.362zm6.872-17.741c1.909-4.649 3.811-8.387 5.703-11.225l-.832-.555c-1.941 2.912-3.872 6.715-5.797 11.4l.926.38zm5.704-11.227C16.319 2.404 18.908 1.04 22.381 1l-.012-1c-3.777.043-6.688 1.554-8.661 4.537l.834.551zM22.369 1c3.429.04 5.999 1.402 7.776 4.088l.835-.551C29.007 1.557 26.12.044 22.38 0l-.01 1zm7.781 4.096c1.889 2.75 3.79 6.485 5.699 11.216l.927-.374c-1.924-4.769-3.856-8.576-5.801-11.409l-.825.567zm5.696 11.21l6.875 17.75.933-.362-6.875-17.75-.933.362zm6.886 17.776c.183.401.294.843.332 1.331l.997-.076a4.912 4.912 0 00-.418-1.669l-.91.414zm.332 1.329c.073 1.029-.234 1.89-.926 2.62l.724.688c.89-.937 1.292-2.076 1.2-3.38l-.998.072zm-.936 2.63c-.647.719-1.486 1.084-2.566 1.084v1c1.338 0 2.457-.468 3.31-1.416l-.744-.669zm-2.566 1.084c-1.324 0-2.209-.264-2.747-.7l-.63.776c.795.646 1.952.924 3.377.924v-1zm-2.72-.678c-.574-.535-1.06-1.211-1.453-2.037l-.903.43c.44.924.996 1.706 1.673 2.338l.682-.731zm-1.435-1.994l-1.187-3.25-.94.344 1.188 3.25.94-.344zm-1.657-3.578H21.187v1H33.75v-1zm-12.563 0c-1.031 0-1.879-.362-2.575-1.094l-.724.688c.887.935 1.998 1.406 3.3 1.406v-1zm-2.593-1.113c-.732-.695-1.094-1.543-1.094-2.575h-1c0 1.302.471 2.413 1.406 3.3l.688-.725z" fill="#fff"/></svg><svg viewBox="0 0 512 512" id="arrow-down" xmlns="http://www.w3.org/2000/svg"><path d="M256 0C114.618 0 0 114.618 0 256s114.618 256 256 256 256-114.618 256-256S397.382 0 256 0zm0 469.333c-117.818 0-213.333-95.515-213.333-213.333S138.182 42.667 256 42.667 469.333 138.182 469.333 256 373.818 469.333 256 469.333z"/><path d="M347.582 198.248L256 289.83l-91.582-91.582c-8.331-8.331-21.839-8.331-30.17 0-8.331 8.331-8.331 21.839 0 30.17l106.667 106.667c8.331 8.331 21.839 8.331 30.17 0l106.667-106.667c8.331-8.331 8.331-21.839 0-30.17-8.332-8.331-21.839-8.331-30.17 0z"/></svg><svg viewBox="0 0 193.784 193.784" id="down-arrow-sketch-svgrepo-com" xmlns="http://www.w3.org/2000/svg"><path d="M173.171 45.478C146.424 31.258 120.988 14.776 94.44.204c-.729-.4-1.761-.212-2.168.568-4.242 8.116-7.442 16.551-10.157 25.155-.264-.406-.564-.796-.82-1.205-.327-.522-1.128-.058-.826.483.39.7.811 1.435 1.21 2.148-1.483 4.8-2.833 9.646-4.128 14.521-.162-.288-.358-.555-.515-.845-.29-.538-1.081-.065-.813.475.298.6.646 1.167.961 1.756-.475 1.799-.946 3.599-1.414 5.402-.217.101-.376.35-.242.632.016.033.036.064.051.096-.613 2.357-1.226 4.717-1.851 7.078a606.028 606.028 0 01-3.054 11.021c-.065-.075-.126-.154-.191-.229l-.015.015c-.234-.24-.7.047-.502.383.142.241.32.459.467.697-3.513 12.304-7.197 24.53-9.88 37-.384-.201-.924.188-.665.671.124.231.268.451.394.682-.36 1.722-.721 3.443-1.038 5.177-.089.107-.144.236-.088.392l.007.017a173.32 173.32 0 00-1.38 8.838c-.307-.322-.887.008-.634.433.157.264.303.545.456.814-.024.204-.063.403-.087.607-11.804-4.663-24.268-6.584-36.885-7.473-.76-.054-1.063.886-.729 1.412a.827.827 0 00.031.594c11.54 25.523 24.712 50.303 36.924 75.511.313.646 1.109.852 1.753.715 7.702-1.642 15.058-4.008 22.24-6.762a.418.418 0 00.345-.134 220.886 220.886 0 0011.918-5.033c.097.062.18.162.279.219.432.242.896-.237.665-.664.975-.448 1.936-.932 2.906-1.391.298.157.637-.057.738-.353 1.339-.639 2.659-1.344 3.994-1.999.069.049.13.113.199.16.382.259.865-.211.689-.605a750.01 750.01 0 0012.483-6.332.394.394 0 00.147-.075c2.654-1.373 5.316-2.769 7.976-4.157.018-.012.037-.017.054-.028 1.743-.911 3.48-1.812 5.229-2.727.623-.324.823-.86.777-1.388a.95.95 0 00.264-.709c-.361-6.103-1.034-12.192-2.381-18.161-.128-.567-.62-.995-1.157-1.158-2.354-.717-4.543-1.903-6.703-3.066-.55-.296-1.12-.7-1.719-1.014.324-.403.687-.771 1.015-1.171.062.053.11.124.174.175.477.369 1.33-.114.916-.707-.093-.134-.19-.267-.283-.399 13.006-15.664 28.045-29.309 41.371-44.677 12.61-14.543 12.613-24.724 11.924-43.058 1.292-.348 1.999-2.256.499-3.053zm-3.97 1.689c.128 3.195.376 6.324.539 9.421-1.335-4.1-3.453-8.19-5.378-12.071 1.615.881 3.212 1.79 4.839 2.65zm-50.172-29.094c4.462 2.666 8.914 5.343 13.369 8.013 10.988 12.941 17.076 28.711 25.209 43.268-.08.029-.161.034-.239.08-1.125-.536-2.269-1.026-3.406-1.533-1.706-3.337-4.58-6.634-6.459-9.739-3.921-6.481-7.637-13.085-11.587-19.55-2.375-3.886-9.837-19.844-16.067-18.676-.074.014-.059.141.018.132 5.781-.65 16.187 23.053 18.438 27.025 3.182 5.61 6.354 11.225 9.757 16.705.377.608.797 1.338 1.256 2.089-1.321-.55-2.642-1.104-3.97-1.637.328-.761-.581-1.342-1.211-.842 1-.796-26.41-40.403-33.191-50.661 3.816 2.402 7.003 4.681 8.083 5.326zm-18.613 119.196c.166.199.315.423.479.626-3.26 4.73-6.427 9.523-9.35 14.478-1.297.604-1.558 2.852.207 3.305 4 1.028 7.994 2.04 11.967 3.164 13.412 3.791 4.592 4.916-1.691 7.302-7.571 2.875-15.325 5.327-22.75 8.576-10.721 4.691-11.104 4.159-15.716-6.477-3.486-8.039-7.397-15.769-11.626-23.385.028-.175.051-.354-.057-.553-.745-1.363-1.559-2.682-2.392-3.988 3.257 1.486 6.542 2.915 9.792 4.417 1.932.894 3.853 1.812 5.756 2.768.543.272 3.276 1.422 2.898.986.858.988 2.45-.06 2.124-1.235-.182-.655-.587-1.217-1.115-1.715 11.601-32.39 18.763-66.192 30.373-98.619 16.91 11.698 37.155 16.496 55.604 25.199-18.119 21.277-37.498 41.982-53.475 64.99-.141-.148-.263-.314-.404-.463-.398-.419-.98.194-.624.624zm-4.533 12.746c.377 1.196.851 2.384 1.496 3.504-1.129-.305-2.247-.615-3.396-.915.619-.877 1.269-1.725 1.9-2.589zm13.392-138.293c6.648 14.011 16.185 26.301 24.511 39.322 1.628 2.546 3.598 7.728 6.245 11.092-.122-.047-.242-.098-.363-.144-15.229-15.436-28.689-33.699-37.002-53.87 2.186 1.014 4.455 2.296 6.609 3.6zm-8.046-4.217c3.418 11.136 9.776 21.425 16.084 31.102a236.488 236.488 0 004.368 6.491c-9.568-12.139-19.37-24.281-24.542-38.925 1.236.225 2.64.731 4.09 1.332zm-9.129.429c.653-1.478 2.042-1.984 3.833-1.887 2.618 10.071 8.518 19.152 14.269 27.678 5.58 8.272 11.791 17.137 18.948 24.254-2.015-.766-4.03-1.528-6.033-2.318-10.405-15.948-21.589-31.094-31.021-47.72l.004-.007zm-.493 1.192c7.303 15.485 16.294 31.8 27.573 44.907-1.911-.785-3.841-1.53-5.728-2.369-7.739-12.623-17.806-23.613-24.072-37.144a163.719 163.719 0 012.227-5.394zm-2.775 6.885c5.29 12.478 13.846 23.11 21.516 34.21-1.326-.622-2.658-1.23-3.967-1.893-7.212-8.499-12.651-18.224-19.499-26.997a235.51 235.51 0 011.95-5.32zm-2.439 6.807c4.596 6.724 8.718 13.852 13.576 20.391-.67-.859-2.399-.915-2.909.468-.295.802-.56 1.617-.838 2.426-3.585-5.828-7.941-11.317-11.922-16.966.627-2.139 1.382-4.219 2.093-6.319zm-2.925 9.128c.085-.313.187-.616.275-.928 3.451 6.026 7.3 12.097 11.755 17.177-.278.824-.566 1.644-.851 2.465-.177-.09-.376-.067-.556.016-1.059-1.824-2.031-3.49-3.608-5.221-3.022-3.317-5.221-7.332-7.682-11.104.222-.801.449-1.605.667-2.405zm-2.637 9.517c2.354 3.565 4.286 7.412 6.652 10.975.445.67 4.12 5.827 4.629 2.46.12-.796-.893-1.074-1.197-.33.09-.221-1.596-1.937-1.953-2.416-.997-1.335-1.873-2.77-2.759-4.179-1.605-2.554-3.031-5.284-4.877-7.677-.041-.053-.099-.055-.149-.088.455-1.635.906-3.269 1.359-4.903 2.007 3.387 3.851 6.871 6.131 10.091 1.251 1.766 2.783 3.201 3.737 5.173.443.915.714 1.968 1.302 2.811-.92 2.689-1.893 5.354-2.783 8.055-.051.066-.124.09-.16.179.032.059.037.073.062.121l-.031.096a29.334 29.334 0 01-.54-.825 51.397 51.397 0 00-1.048-1.646c-1.197-1.843-2.583-3.58-3.823-5.398-1.922-2.817-3.832-5.641-5.657-8.518.37-1.327.734-2.652 1.105-3.981zM77.59 53.152a115.542 115.542 0 005.21 8.613c.496.742 3.608 5.977 5.016 3.926.437-.637-.487-1.228-1.01-.779.476-.408.48-.021-.098-.766-.378-.488-.78-.955-1.17-1.433-1.212-1.487-2.298-3.083-3.381-4.663a146.616 146.616 0 01-4.151-6.395c.429-1.54.851-3.077 1.28-4.617 2.853 4.765 6.051 9.306 8.929 14.063.499.825 1.274 1.898 2.026 2.433-.802 2.457-1.622 4.907-2.403 7.372-.013-.062.003-.128-.035-.187-1.587-2.503-3.664-4.732-5.533-7.03-1.827-2.246-3.628-4.698-5.74-6.709.355-1.277.705-2.551 1.06-3.828zm-1.322 4.776c1.792 2.328 3.481 4.749 5.267 7.081 1.631 2.128 3.219 4.959 5.409 6.57.243.178.511.101.702-.072-.601 1.903-1.237 3.791-1.825 5.699-4.301-4.315-7.698-9.033-10.966-14.179.472-1.702.938-3.398 1.413-5.099zm-3.751 13.535a172.592 172.592 0 003.6 4.762c1.909 2.456 3.858 5.497 6.336 7.416.636.492 1.815-.169 1.233-.951-1.781-2.393-4.052-4.494-6.001-6.757-1.636-1.901-3.212-3.852-4.803-5.79.495-1.795.993-3.58 1.49-5.374a94.031 94.031 0 005.437 8.548c1.136 1.583 3.243 5.144 5.56 5.377a963.48 963.48 0 00-3.075 10.228c-.281.009-.557.192-.569.545-.009.24.06.582.023.863-1.76-2.73-3.754-5.33-5.649-7.96-1.508-2.094-3.494-4.197-4.841-6.356.412-1.52.842-3.033 1.259-4.551zm-1.453 5.247c2.625 5.333 6.293 10.486 9.799 15.307.11.151.251.278.413.351-.285.982-.584 1.96-.867 2.943-1.318-1.737-4.71-5.541-5.211-6.22-1.873-2.538-3.639-5.15-5.409-7.76.416-1.543.857-3.079 1.275-4.621zm-1.689 6.136c2.474 3.814 4.932 7.648 7.695 11.258.328.428 1.595 2.074 2.824 2.99-.48 1.677-.978 3.347-1.451 5.026-2.119-2.638-4.228-5.235-6.101-8.109-1.32-2.026-2.566-4.588-4.245-6.496.409-1.561.862-3.11 1.278-4.669zm-1.741 6.437c1.402 2.458 3.12 4.845 4.589 7.17 1.572 2.488 3.389 5.419 5.723 7.418-.395 1.408-.809 2.812-1.199 4.223-1.746-2.033-3.683-3.945-5.291-6.088-1.826-2.434-3.485-4.981-5.193-7.496.441-1.746.92-3.483 1.371-5.227zm-1.797 6.903a117.539 117.539 0 004.952 7.569c1.535 2.146 3.254 4.658 5.387 6.394-.485 1.767-.995 3.527-1.473 5.294-1.581-2.189-3.35-4.263-4.869-6.505-1.799-2.655-3.455-5.401-5.181-8.104.374-1.555.799-3.098 1.184-4.648zm-1.535 6.087c1.43 2.464 2.85 4.934 4.349 7.354 1.569 2.535 3.266 5.458 5.616 7.411-.569 2.109-1.166 4.216-1.726 6.326-1.521-3.1-3.929-5.893-5.904-8.705-1.378-1.963-2.613-4.013-3.879-6.045.474-2.118 1.041-4.223 1.544-6.341zm-1.924 8.05a208.703 208.703 0 003.154 4.982c2.019 3.104 3.902 6.592 6.462 9.272.062.064.129.065.195.094-.399 1.509-.823 3.016-1.218 4.524-2.823-5.008-6.755-9.444-9.56-14.518.305-1.452.649-2.902.967-4.354zm-1.332 6.187c1.273 2.496 2.743 4.902 4.205 7.274 1.573 2.553 3.171 5.345 5.121 7.69-.63 2.423-1.294 4.844-1.914 7.266-1.446-2.44-3.052-4.805-4.458-7.273-1.447-2.54-2.89-5.08-4.433-7.561.454-2.471.975-4.932 1.479-7.396zm-13.548 6.421c3.803 5.568 6.387 12.374 11.004 17.268.458.486 1.216-.135.904-.697a157.355 157.355 0 00-10.25-16.104c2.786.839 5.549 1.757 8.255 2.872.25.268.645.333 1.016.269l.005-.001c.137-.025.264-.039.376-.115.276-.12.47-.361.614-.637 2.554 5.084 4.946 10.604 8.598 14.668-.239.935-.484 1.87-.721 2.806-1.864-3.163-4.343-6.185-6.365-9.217-2.135-3.205-4.446-6.228-7.395-8.727-.414-.35-.997.209-.603.604 3.209 3.203 5.541 7.057 7.911 10.889 1.304 2.108 2.569 4.539 4.214 6.523-.944-.394-1.85-.75-2.538-1.069-3.096-1.438-6.243-2.975-9.477-4.176-.002-.004.001-.008-.002-.013-1.39-2.491-3.277-4.724-4.759-7.178-1.744-2.887-3.277-5.931-4.662-9.004-.018-.041-.056-.047-.083-.073 1.33.332 2.639.737 3.958 1.112zm-4.274-1.189c-.175.057-.323.22-.255.425 1.61 4.954 3.958 11.007 7.605 15.095-.201-.061-.397-.142-.599-.199-.728-.208-1.395.145-1.803.734l-.039.124c-.063.023-.08.09-.11.144-3.629-5.425-7.551-10.65-9.875-16.84-.234-.622-1.23-.367-1.009.278 2.178 6.355 5.849 11.952 9.441 17.586-.006.167-.009.337.083.522 5.909 12.057 11.44 24.275 16.51 36.7-11.811-18.212-23.663-36.483-31.089-56.979 3.739.699 7.456 1.494 11.14 2.41zm13.058 62.75c-10.621-22.73-21.953-45.273-34.51-66.998 1.608.273 3.217.548 4.826.826.855 11.023 6.82 20.436 12.779 29.535 8.822 13.472 17.354 27.03 25.264 41.074-3.953-.066-6.926-1.372-8.359-4.437zm10.478 4.366c-6.517-12.207-13.371-24.502-21.221-35.901-7.096-10.308-15.709-21.74-17.724-34.419 1.053.185 2.101.394 3.152.587 7.499 25.669 23.865 47.24 38.26 69.384-.837.137-1.685.286-2.467.349zm4.073-.63c-.926-1.465-1.872-2.923-2.809-4.384.08-.031.158-.026.238-.069.984-.534 1.992-1.013 2.988-1.517.344 2.103 1.787 4.046 3.854 4.699.415.131.612-.378.385-.662-1.273-1.602-2.993-2.305-3.241-4.544.592-.293 1.195-.558 1.791-.841a73.63 73.63 0 005.206 4.838c-2.956 1.064-5.8 1.935-8.412 2.48zm9.483-2.878c-1.695-1.738-3.712-3.194-5.56-4.776 1.351-.636 2.742-1.177 4.11-1.774 1.635 1.784 3.323 3.7 5.38 4.988a120.37 120.37 0 01-3.93 1.562zm9.002-3.806c-1.321-1.464-3.044-2.538-4.492-3.877-.536-.496-1.327.286-.803.804 1.296 1.28 2.73 2.476 4.206 3.573-.941.426-1.88.843-2.812 1.242-1.865-1.651-3.797-3.21-5.65-4.876 2.509-1.082 5.049-2.092 7.592-3.093 1.217 1.81 2.555 3.737 4.108 5.214-.717.341-1.434.683-2.149 1.013zm3.602-1.711c-.763-.921-1.595-1.802-2.361-2.688-.661-.764-1.274-1.566-1.903-2.356.901-.351 1.807-.688 2.71-1.033 1.139 1.682 2.458 3.427 3.962 4.867-.804.402-1.601.817-2.408 1.21zm3.71-1.863c-1.38-1.556-2.951-2.956-4.261-4.596 1.227-.467 2.457-.93 3.686-1.393 1.268 1.404 2.534 2.925 3.931 4.239-1.114.587-2.226 1.175-3.356 1.75zm4.676-2.438c-1.271-1.412-2.771-2.688-4.19-3.95 1.174-.441 2.344-.894 3.518-1.335 1.157 1.236 2.448 2.648 3.971 3.502a341.716 341.716 0 01-3.299 1.783zm4.818-2.616a30.537 30.537 0 01-4.283-3.127c1.307-.494 2.606-1.003 3.91-1.504 1.123 1.05 2.313 2.058 3.574 2.845a444.015 444.015 0 01-3.201 1.786zm4.129-2.312c-.771-1.133-1.923-2.01-3.064-2.873 1.077-.418 2.138-.877 3.211-1.304.629 1.01 1.351 2.006 2.176 2.854-.761.435-1.53.874-2.323 1.323zm3.7-2.115c-.37-.327-.744-.651-1.086-1.015-.45-.478-.808-1.034-1.203-1.562 1.607-.648 3.226-1.268 4.816-1.956 1.237-.536.997-2.362 0-2.968-5.486-3.325-11.19-5.273-17.156-6.946-1.171-1.449-2.174-2.986-2.828-4.864 1.124-1.528 2.235-3.066 3.367-4.587.436 1.975 2.177 3.889 3.304 5.386a120.773 120.773 0 003.197 4.039c.885 1.077 1.967 2.728 3.284 3.29.399.171 1.078-.119.856-.659-.912-2.222-3.549-4.227-5.112-6.028a80.333 80.333 0 01-3.247-3.975c-.557-.729-1.657-1.738-1.828-2.674.86-1.154 1.688-2.338 2.558-3.486 5.74 7.972 10.36 17.642 17.375 24.354-1.895 1.103-3.973 2.315-6.297 3.651zm8.321-23.869c.69.303 1.396.564 2.106.817.147.052.84 4.928.934 5.426l.014.082a256.65 256.65 0 00-6.324-7.67c1.246.556 2.473.995 3.27 1.345zm3.454 9.157c.028.023.068.015.101.032.416 2.404.82 4.811 1.257 7.209-.079.028-.153.027-.233.069-1.153.606-2.81 1.554-4.779 2.694-5.992-8.13-11.792-16.635-18.484-24.22 1.808-2.375 3.703-4.673 5.547-7.016 4.659 7.181 9.824 15.899 16.591 21.232zm-7.811-19.574c-1.09-1.533-2.18-3.065-3.263-4.604-.387-.551-1.275-.06-.917.536 1.019 1.696 1.975 3.693 3.23 5.352-.631.889-1.32 1.718-1.934 2.622-.092.051-.153.134-.23.2-1.764-2.102-3.504-4.223-5.161-6.408 2.315-2.936 4.696-5.814 7.056-8.714 1.119 2.327 2.427 5.082 4.227 7.137-1 1.297-2.042 2.551-3.008 3.879zm3.937-5.073c-1.561-2.127-3.134-4.204-4.41-6.591-.034-.063-.089-.069-.133-.107.951-1.168 1.942-2.307 2.9-3.47 1.031 2.159 2.372 5.146 4.328 6.899-.893 1.091-1.811 2.158-2.685 3.269zm6.657-7.861c-.765-1.979-2.476-3.709-3.266-5.691-.202-.508-1.022-.306-.836.23.733 2.104 1.933 4.511 3.406 6.251-.735.859-1.52 1.677-2.243 2.546-1.731-1.962-3.267-3.942-4.553-6.338-.035-.064-.092-.07-.137-.109 1.844-2.234 3.729-4.437 5.584-6.659 1.573 2.105 3.211 4.228 5.025 6.034.081.081.169.091.255.117-1.071 1.209-2.179 2.394-3.235 3.619zm3.928-4.391c-.008-.024.005-.046-.006-.07-1.077-2.362-3.237-4.35-5.102-6.339 1.217-1.456 2.447-2.904 3.667-4.358.575 1.008 1.099 2.044 1.714 3.023.816 1.296 1.753 3.074 3.298 3.59.08.027.146-.002.219-.01-1.266 1.387-2.542 2.765-3.79 4.164zm4.304-4.731a.53.53 0 00-.151-.423c-1.907-1.841-3.506-4.116-4.892-6.449.897-1.066 1.793-2.141 2.69-3.207 1.116 2.489 2.994 5.776 5.322 5.671.63-.028.745-.891.147-1.087-2.14-.7-3.699-3.247-4.778-5.407 1.153-1.369 2.3-2.75 3.455-4.119a35.582 35.582 0 002.586 4.564c.708 1.047 1.533 2.306 2.679 2.953-2.374 2.491-4.748 4.98-7.058 7.504zm9.783-10.401c-.578.592-1.12 1.204-1.693 1.799-2.113-2.244-3.966-4.771-5.372-7.523.767-.909 1.527-1.826 2.293-2.734 1.065 2.923 3.503 6.559 6.464 6.653.113.004.188-.098.278-.165a135.49 135.49 0 00-1.97 1.97zm2.172-2.169c.064-.152.104-.322-.001-.468-.832-1.139-2.242-1.74-3.293-2.681-1.294-1.158-2.147-2.643-2.71-4.26.747-.885 1.488-1.779 2.234-2.665.003.072-.013.142.022.215.732 1.479 1.765 2.811 2.778 4.108.847 1.084 1.902 2.72 3.23 3.553-.769.746-1.529 1.48-2.26 2.198zm3.56-3.455c-2.334-2.209-4.293-4.692-6.521-7.011a.44.44 0 00-.358-.145c1.066-1.263 2.123-2.539 3.189-3.802 1.142 1.807 2.244 3.643 3.447 5.408.807 1.183 1.737 2.31 3.038 2.798-.933.93-1.869 1.857-2.795 2.752zm3.859-3.819c-3.035-1.928-4.666-5.197-6.883-7.932.978-1.16 1.949-2.33 2.928-3.491.925 1.98 1.911 3.923 3.145 5.744.787 1.165 1.797 2.481 3.01 3.384-.724.772-1.456 1.541-2.2 2.295zm3.583-3.831c-1.244-1.264-2.569-2.445-3.666-3.903-1.117-1.487-2.097-3.075-3.043-4.68.728-.864 1.451-1.734 2.179-2.598 1.214 3.358 3.104 7.61 6.141 9.259-.535.642-1.045 1.29-1.611 1.922zm2.546-3.038c-.842-1.59-2.285-2.896-3.336-4.354-1.095-1.519-2.014-3.173-2.849-4.85 1.089-1.295 2.183-2.583 3.263-3.89 1.815 3.079 3.711 6.111 5.841 9.005-.849 1.386-1.851 2.745-2.919 4.089zm4.784-7.624c-.231.538-.552 1.067-.827 1.601-7.554-18.215-18.389-37.612-31.96-52.227 3.665 2.193 7.355 4.342 11.037 6.504 5.322 13.519 12.106 30.143 22.998 39.971.056.051.124.043.186.072a33.317 33.317 0 01-1.434 4.079zm1.839-5.826c-7.703-12.396-15.252-24.374-21.984-37.35a719.906 719.906 0 0015.618 8.864c.005.022-.013.038-.004.061 1.862 4.938 3.573 10.602 6.308 15.114.244.405.691.438 1.03.263.149 4.367.028 8.686-.968 13.048z"/><path d="M163.998 53.633c-2.8-4.565-5.854-8.965-8.896-13.37-.422-.611-1.394-.068-1.008.589 2.407 4.095 4.882 8.149 7.291 12.242 2.289 3.887 3.995 8.379 6.653 11.994.555.755 1.801.331 1.559-.657-.957-3.891-3.523-7.412-5.599-10.798zM126.076 158.391c-6.52-7.319-12.531-14.804-18.625-22.487-.344-.434-1.064.133-.763.59 5.235 7.943 10.79 17.258 18.464 23.095.723.55 1.468-.587.924-1.198z"/></svg><svg viewBox="0 0 193.784 193.784" id="down-arrow-sketch-svgrepo-com_(1)" xmlns="http://www.w3.org/2000/svg"><path d="M173.171 45.478C146.424 31.258 120.988 14.776 94.44.204c-.729-.4-1.761-.212-2.168.568-4.242 8.116-7.442 16.551-10.157 25.155-.264-.406-.564-.796-.82-1.205-.327-.522-1.128-.058-.826.483.39.7.811 1.435 1.21 2.148-1.483 4.8-2.833 9.646-4.128 14.521-.162-.288-.358-.555-.515-.845-.29-.538-1.081-.065-.813.475.298.6.646 1.167.961 1.756-.475 1.799-.946 3.599-1.414 5.402-.217.101-.376.35-.242.632.016.033.036.064.051.096-.613 2.357-1.226 4.717-1.851 7.078a606.028 606.028 0 01-3.054 11.021c-.065-.075-.126-.154-.191-.229l-.015.015c-.234-.24-.7.047-.502.383.142.241.32.459.467.697-3.513 12.304-7.197 24.53-9.88 37-.384-.201-.924.188-.665.671.124.231.268.451.394.682-.36 1.722-.721 3.443-1.038 5.177-.089.107-.144.236-.088.392l.007.017a173.32 173.32 0 00-1.38 8.838c-.307-.322-.887.008-.634.433.157.264.303.545.456.814-.024.204-.063.403-.087.607-11.804-4.663-24.268-6.584-36.885-7.473-.76-.054-1.063.886-.729 1.412a.827.827 0 00.031.594c11.54 25.523 24.712 50.303 36.924 75.511.313.646 1.109.852 1.753.715 7.702-1.642 15.058-4.008 22.24-6.762a.418.418 0 00.345-.134 220.886 220.886 0 0011.918-5.033c.097.062.18.162.279.219.432.242.896-.237.665-.664.975-.448 1.936-.932 2.906-1.391.298.157.637-.057.738-.353 1.339-.639 2.659-1.344 3.994-1.999.069.049.13.113.199.16.382.259.865-.211.689-.605a750.01 750.01 0 0012.483-6.332.394.394 0 00.147-.075c2.654-1.373 5.316-2.769 7.976-4.157.018-.012.037-.017.054-.028 1.743-.911 3.48-1.812 5.229-2.727.623-.324.823-.86.777-1.388a.95.95 0 00.264-.709c-.361-6.103-1.034-12.192-2.381-18.161-.128-.567-.62-.995-1.157-1.158-2.354-.717-4.543-1.903-6.703-3.066-.55-.296-1.12-.7-1.719-1.014.324-.403.687-.771 1.015-1.171.062.053.11.124.174.175.477.369 1.33-.114.916-.707-.093-.134-.19-.267-.283-.399 13.006-15.664 28.045-29.309 41.371-44.677 12.61-14.543 12.613-24.724 11.924-43.058 1.292-.348 1.999-2.256.499-3.053zm-3.97 1.689c.128 3.195.376 6.324.539 9.421-1.335-4.1-3.453-8.19-5.378-12.071 1.615.881 3.212 1.79 4.839 2.65zm-50.172-29.094c4.462 2.666 8.914 5.343 13.369 8.013 10.988 12.941 17.076 28.711 25.209 43.268-.08.029-.161.034-.239.08-1.125-.536-2.269-1.026-3.406-1.533-1.706-3.337-4.58-6.634-6.459-9.739-3.921-6.481-7.637-13.085-11.587-19.55-2.375-3.886-9.837-19.844-16.067-18.676-.074.014-.059.141.018.132 5.781-.65 16.187 23.053 18.438 27.025 3.182 5.61 6.354 11.225 9.757 16.705.377.608.797 1.338 1.256 2.089-1.321-.55-2.642-1.104-3.97-1.637.328-.761-.581-1.342-1.211-.842 1-.796-26.41-40.403-33.191-50.661 3.816 2.402 7.003 4.681 8.083 5.326zm-18.613 119.196c.166.199.315.423.479.626-3.26 4.73-6.427 9.523-9.35 14.478-1.297.604-1.558 2.852.207 3.305 4 1.028 7.994 2.04 11.967 3.164 13.412 3.791 4.592 4.916-1.691 7.302-7.571 2.875-15.325 5.327-22.75 8.576-10.721 4.691-11.104 4.159-15.716-6.477-3.486-8.039-7.397-15.769-11.626-23.385.028-.175.051-.354-.057-.553-.745-1.363-1.559-2.682-2.392-3.988 3.257 1.486 6.542 2.915 9.792 4.417 1.932.894 3.853 1.812 5.756 2.768.543.272 3.276 1.422 2.898.986.858.988 2.45-.06 2.124-1.235-.182-.655-.587-1.217-1.115-1.715 11.601-32.39 18.763-66.192 30.373-98.619 16.91 11.698 37.155 16.496 55.604 25.199-18.119 21.277-37.498 41.982-53.475 64.99-.141-.148-.263-.314-.404-.463-.398-.419-.98.194-.624.624zm-4.533 12.746c.377 1.196.851 2.384 1.496 3.504-1.129-.305-2.247-.615-3.396-.915.619-.877 1.269-1.725 1.9-2.589zm13.392-138.293c6.648 14.011 16.185 26.301 24.511 39.322 1.628 2.546 3.598 7.728 6.245 11.092-.122-.047-.242-.098-.363-.144-15.229-15.436-28.689-33.699-37.002-53.87 2.186 1.014 4.455 2.296 6.609 3.6zm-8.046-4.217c3.418 11.136 9.776 21.425 16.084 31.102a236.488 236.488 0 004.368 6.491c-9.568-12.139-19.37-24.281-24.542-38.925 1.236.225 2.64.731 4.09 1.332zm-9.129.429c.653-1.478 2.042-1.984 3.833-1.887 2.618 10.071 8.518 19.152 14.269 27.678 5.58 8.272 11.791 17.137 18.948 24.254-2.015-.766-4.03-1.528-6.033-2.318-10.405-15.948-21.589-31.094-31.021-47.72l.004-.007zm-.493 1.192c7.303 15.485 16.294 31.8 27.573 44.907-1.911-.785-3.841-1.53-5.728-2.369-7.739-12.623-17.806-23.613-24.072-37.144a163.719 163.719 0 012.227-5.394zm-2.775 6.885c5.29 12.478 13.846 23.11 21.516 34.21-1.326-.622-2.658-1.23-3.967-1.893-7.212-8.499-12.651-18.224-19.499-26.997a235.51 235.51 0 011.95-5.32zm-2.439 6.807c4.596 6.724 8.718 13.852 13.576 20.391-.67-.859-2.399-.915-2.909.468-.295.802-.56 1.617-.838 2.426-3.585-5.828-7.941-11.317-11.922-16.966.627-2.139 1.382-4.219 2.093-6.319zm-2.925 9.128c.085-.313.187-.616.275-.928 3.451 6.026 7.3 12.097 11.755 17.177-.278.824-.566 1.644-.851 2.465-.177-.09-.376-.067-.556.016-1.059-1.824-2.031-3.49-3.608-5.221-3.022-3.317-5.221-7.332-7.682-11.104.222-.801.449-1.605.667-2.405zm-2.637 9.517c2.354 3.565 4.286 7.412 6.652 10.975.445.67 4.12 5.827 4.629 2.46.12-.796-.893-1.074-1.197-.33.09-.221-1.596-1.937-1.953-2.416-.997-1.335-1.873-2.77-2.759-4.179-1.605-2.554-3.031-5.284-4.877-7.677-.041-.053-.099-.055-.149-.088.455-1.635.906-3.269 1.359-4.903 2.007 3.387 3.851 6.871 6.131 10.091 1.251 1.766 2.783 3.201 3.737 5.173.443.915.714 1.968 1.302 2.811-.92 2.689-1.893 5.354-2.783 8.055-.051.066-.124.09-.16.179.032.059.037.073.062.121l-.031.096a29.334 29.334 0 01-.54-.825 51.397 51.397 0 00-1.048-1.646c-1.197-1.843-2.583-3.58-3.823-5.398-1.922-2.817-3.832-5.641-5.657-8.518.37-1.327.734-2.652 1.105-3.981zM77.59 53.152a115.542 115.542 0 005.21 8.613c.496.742 3.608 5.977 5.016 3.926.437-.637-.487-1.228-1.01-.779.476-.408.48-.021-.098-.766-.378-.488-.78-.955-1.17-1.433-1.212-1.487-2.298-3.083-3.381-4.663a146.616 146.616 0 01-4.151-6.395c.429-1.54.851-3.077 1.28-4.617 2.853 4.765 6.051 9.306 8.929 14.063.499.825 1.274 1.898 2.026 2.433-.802 2.457-1.622 4.907-2.403 7.372-.013-.062.003-.128-.035-.187-1.587-2.503-3.664-4.732-5.533-7.03-1.827-2.246-3.628-4.698-5.74-6.709.355-1.277.705-2.551 1.06-3.828zm-1.322 4.776c1.792 2.328 3.481 4.749 5.267 7.081 1.631 2.128 3.219 4.959 5.409 6.57.243.178.511.101.702-.072-.601 1.903-1.237 3.791-1.825 5.699-4.301-4.315-7.698-9.033-10.966-14.179.472-1.702.938-3.398 1.413-5.099zm-3.751 13.535a172.592 172.592 0 003.6 4.762c1.909 2.456 3.858 5.497 6.336 7.416.636.492 1.815-.169 1.233-.951-1.781-2.393-4.052-4.494-6.001-6.757-1.636-1.901-3.212-3.852-4.803-5.79.495-1.795.993-3.58 1.49-5.374a94.031 94.031 0 005.437 8.548c1.136 1.583 3.243 5.144 5.56 5.377a963.48 963.48 0 00-3.075 10.228c-.281.009-.557.192-.569.545-.009.24.06.582.023.863-1.76-2.73-3.754-5.33-5.649-7.96-1.508-2.094-3.494-4.197-4.841-6.356.412-1.52.842-3.033 1.259-4.551zm-1.453 5.247c2.625 5.333 6.293 10.486 9.799 15.307.11.151.251.278.413.351-.285.982-.584 1.96-.867 2.943-1.318-1.737-4.71-5.541-5.211-6.22-1.873-2.538-3.639-5.15-5.409-7.76.416-1.543.857-3.079 1.275-4.621zm-1.689 6.136c2.474 3.814 4.932 7.648 7.695 11.258.328.428 1.595 2.074 2.824 2.99-.48 1.677-.978 3.347-1.451 5.026-2.119-2.638-4.228-5.235-6.101-8.109-1.32-2.026-2.566-4.588-4.245-6.496.409-1.561.862-3.11 1.278-4.669zm-1.741 6.437c1.402 2.458 3.12 4.845 4.589 7.17 1.572 2.488 3.389 5.419 5.723 7.418-.395 1.408-.809 2.812-1.199 4.223-1.746-2.033-3.683-3.945-5.291-6.088-1.826-2.434-3.485-4.981-5.193-7.496.441-1.746.92-3.483 1.371-5.227zm-1.797 6.903a117.539 117.539 0 004.952 7.569c1.535 2.146 3.254 4.658 5.387 6.394-.485 1.767-.995 3.527-1.473 5.294-1.581-2.189-3.35-4.263-4.869-6.505-1.799-2.655-3.455-5.401-5.181-8.104.374-1.555.799-3.098 1.184-4.648zm-1.535 6.087c1.43 2.464 2.85 4.934 4.349 7.354 1.569 2.535 3.266 5.458 5.616 7.411-.569 2.109-1.166 4.216-1.726 6.326-1.521-3.1-3.929-5.893-5.904-8.705-1.378-1.963-2.613-4.013-3.879-6.045.474-2.118 1.041-4.223 1.544-6.341zm-1.924 8.05a208.703 208.703 0 003.154 4.982c2.019 3.104 3.902 6.592 6.462 9.272.062.064.129.065.195.094-.399 1.509-.823 3.016-1.218 4.524-2.823-5.008-6.755-9.444-9.56-14.518.305-1.452.649-2.902.967-4.354zm-1.332 6.187c1.273 2.496 2.743 4.902 4.205 7.274 1.573 2.553 3.171 5.345 5.121 7.69-.63 2.423-1.294 4.844-1.914 7.266-1.446-2.44-3.052-4.805-4.458-7.273-1.447-2.54-2.89-5.08-4.433-7.561.454-2.471.975-4.932 1.479-7.396zm-13.548 6.421c3.803 5.568 6.387 12.374 11.004 17.268.458.486 1.216-.135.904-.697a157.355 157.355 0 00-10.25-16.104c2.786.839 5.549 1.757 8.255 2.872.25.268.645.333 1.016.269l.005-.001c.137-.025.264-.039.376-.115.276-.12.47-.361.614-.637 2.554 5.084 4.946 10.604 8.598 14.668-.239.935-.484 1.87-.721 2.806-1.864-3.163-4.343-6.185-6.365-9.217-2.135-3.205-4.446-6.228-7.395-8.727-.414-.35-.997.209-.603.604 3.209 3.203 5.541 7.057 7.911 10.889 1.304 2.108 2.569 4.539 4.214 6.523-.944-.394-1.85-.75-2.538-1.069-3.096-1.438-6.243-2.975-9.477-4.176-.002-.004.001-.008-.002-.013-1.39-2.491-3.277-4.724-4.759-7.178-1.744-2.887-3.277-5.931-4.662-9.004-.018-.041-.056-.047-.083-.073 1.33.332 2.639.737 3.958 1.112zm-4.274-1.189c-.175.057-.323.22-.255.425 1.61 4.954 3.958 11.007 7.605 15.095-.201-.061-.397-.142-.599-.199-.728-.208-1.395.145-1.803.734l-.039.124c-.063.023-.08.09-.11.144-3.629-5.425-7.551-10.65-9.875-16.84-.234-.622-1.23-.367-1.009.278 2.178 6.355 5.849 11.952 9.441 17.586-.006.167-.009.337.083.522 5.909 12.057 11.44 24.275 16.51 36.7-11.811-18.212-23.663-36.483-31.089-56.979 3.739.699 7.456 1.494 11.14 2.41zm13.058 62.75c-10.621-22.73-21.953-45.273-34.51-66.998 1.608.273 3.217.548 4.826.826.855 11.023 6.82 20.436 12.779 29.535 8.822 13.472 17.354 27.03 25.264 41.074-3.953-.066-6.926-1.372-8.359-4.437zm10.478 4.366c-6.517-12.207-13.371-24.502-21.221-35.901-7.096-10.308-15.709-21.74-17.724-34.419 1.053.185 2.101.394 3.152.587 7.499 25.669 23.865 47.24 38.26 69.384-.837.137-1.685.286-2.467.349zm4.073-.63c-.926-1.465-1.872-2.923-2.809-4.384.08-.031.158-.026.238-.069.984-.534 1.992-1.013 2.988-1.517.344 2.103 1.787 4.046 3.854 4.699.415.131.612-.378.385-.662-1.273-1.602-2.993-2.305-3.241-4.544.592-.293 1.195-.558 1.791-.841a73.63 73.63 0 005.206 4.838c-2.956 1.064-5.8 1.935-8.412 2.48zm9.483-2.878c-1.695-1.738-3.712-3.194-5.56-4.776 1.351-.636 2.742-1.177 4.11-1.774 1.635 1.784 3.323 3.7 5.38 4.988a120.37 120.37 0 01-3.93 1.562zm9.002-3.806c-1.321-1.464-3.044-2.538-4.492-3.877-.536-.496-1.327.286-.803.804 1.296 1.28 2.73 2.476 4.206 3.573-.941.426-1.88.843-2.812 1.242-1.865-1.651-3.797-3.21-5.65-4.876 2.509-1.082 5.049-2.092 7.592-3.093 1.217 1.81 2.555 3.737 4.108 5.214-.717.341-1.434.683-2.149 1.013zm3.602-1.711c-.763-.921-1.595-1.802-2.361-2.688-.661-.764-1.274-1.566-1.903-2.356.901-.351 1.807-.688 2.71-1.033 1.139 1.682 2.458 3.427 3.962 4.867-.804.402-1.601.817-2.408 1.21zm3.71-1.863c-1.38-1.556-2.951-2.956-4.261-4.596 1.227-.467 2.457-.93 3.686-1.393 1.268 1.404 2.534 2.925 3.931 4.239-1.114.587-2.226 1.175-3.356 1.75zm4.676-2.438c-1.271-1.412-2.771-2.688-4.19-3.95 1.174-.441 2.344-.894 3.518-1.335 1.157 1.236 2.448 2.648 3.971 3.502a341.716 341.716 0 01-3.299 1.783zm4.818-2.616a30.537 30.537 0 01-4.283-3.127c1.307-.494 2.606-1.003 3.91-1.504 1.123 1.05 2.313 2.058 3.574 2.845a444.015 444.015 0 01-3.201 1.786zm4.129-2.312c-.771-1.133-1.923-2.01-3.064-2.873 1.077-.418 2.138-.877 3.211-1.304.629 1.01 1.351 2.006 2.176 2.854-.761.435-1.53.874-2.323 1.323zm3.7-2.115c-.37-.327-.744-.651-1.086-1.015-.45-.478-.808-1.034-1.203-1.562 1.607-.648 3.226-1.268 4.816-1.956 1.237-.536.997-2.362 0-2.968-5.486-3.325-11.19-5.273-17.156-6.946-1.171-1.449-2.174-2.986-2.828-4.864 1.124-1.528 2.235-3.066 3.367-4.587.436 1.975 2.177 3.889 3.304 5.386a120.773 120.773 0 003.197 4.039c.885 1.077 1.967 2.728 3.284 3.29.399.171 1.078-.119.856-.659-.912-2.222-3.549-4.227-5.112-6.028a80.333 80.333 0 01-3.247-3.975c-.557-.729-1.657-1.738-1.828-2.674.86-1.154 1.688-2.338 2.558-3.486 5.74 7.972 10.36 17.642 17.375 24.354-1.895 1.103-3.973 2.315-6.297 3.651zm8.321-23.869c.69.303 1.396.564 2.106.817.147.052.84 4.928.934 5.426l.014.082a256.65 256.65 0 00-6.324-7.67c1.246.556 2.473.995 3.27 1.345zm3.454 9.157c.028.023.068.015.101.032.416 2.404.82 4.811 1.257 7.209-.079.028-.153.027-.233.069-1.153.606-2.81 1.554-4.779 2.694-5.992-8.13-11.792-16.635-18.484-24.22 1.808-2.375 3.703-4.673 5.547-7.016 4.659 7.181 9.824 15.899 16.591 21.232zm-7.811-19.574c-1.09-1.533-2.18-3.065-3.263-4.604-.387-.551-1.275-.06-.917.536 1.019 1.696 1.975 3.693 3.23 5.352-.631.889-1.32 1.718-1.934 2.622-.092.051-.153.134-.23.2-1.764-2.102-3.504-4.223-5.161-6.408 2.315-2.936 4.696-5.814 7.056-8.714 1.119 2.327 2.427 5.082 4.227 7.137-1 1.297-2.042 2.551-3.008 3.879zm3.937-5.073c-1.561-2.127-3.134-4.204-4.41-6.591-.034-.063-.089-.069-.133-.107.951-1.168 1.942-2.307 2.9-3.47 1.031 2.159 2.372 5.146 4.328 6.899-.893 1.091-1.811 2.158-2.685 3.269zm6.657-7.861c-.765-1.979-2.476-3.709-3.266-5.691-.202-.508-1.022-.306-.836.23.733 2.104 1.933 4.511 3.406 6.251-.735.859-1.52 1.677-2.243 2.546-1.731-1.962-3.267-3.942-4.553-6.338-.035-.064-.092-.07-.137-.109 1.844-2.234 3.729-4.437 5.584-6.659 1.573 2.105 3.211 4.228 5.025 6.034.081.081.169.091.255.117-1.071 1.209-2.179 2.394-3.235 3.619zm3.928-4.391c-.008-.024.005-.046-.006-.07-1.077-2.362-3.237-4.35-5.102-6.339 1.217-1.456 2.447-2.904 3.667-4.358.575 1.008 1.099 2.044 1.714 3.023.816 1.296 1.753 3.074 3.298 3.59.08.027.146-.002.219-.01-1.266 1.387-2.542 2.765-3.79 4.164zm4.304-4.731a.53.53 0 00-.151-.423c-1.907-1.841-3.506-4.116-4.892-6.449.897-1.066 1.793-2.141 2.69-3.207 1.116 2.489 2.994 5.776 5.322 5.671.63-.028.745-.891.147-1.087-2.14-.7-3.699-3.247-4.778-5.407 1.153-1.369 2.3-2.75 3.455-4.119a35.582 35.582 0 002.586 4.564c.708 1.047 1.533 2.306 2.679 2.953-2.374 2.491-4.748 4.98-7.058 7.504zm9.783-10.401c-.578.592-1.12 1.204-1.693 1.799-2.113-2.244-3.966-4.771-5.372-7.523.767-.909 1.527-1.826 2.293-2.734 1.065 2.923 3.503 6.559 6.464 6.653.113.004.188-.098.278-.165a135.49 135.49 0 00-1.97 1.97zm2.172-2.169c.064-.152.104-.322-.001-.468-.832-1.139-2.242-1.74-3.293-2.681-1.294-1.158-2.147-2.643-2.71-4.26.747-.885 1.488-1.779 2.234-2.665.003.072-.013.142.022.215.732 1.479 1.765 2.811 2.778 4.108.847 1.084 1.902 2.72 3.23 3.553-.769.746-1.529 1.48-2.26 2.198zm3.56-3.455c-2.334-2.209-4.293-4.692-6.521-7.011a.44.44 0 00-.358-.145c1.066-1.263 2.123-2.539 3.189-3.802 1.142 1.807 2.244 3.643 3.447 5.408.807 1.183 1.737 2.31 3.038 2.798-.933.93-1.869 1.857-2.795 2.752zm3.859-3.819c-3.035-1.928-4.666-5.197-6.883-7.932.978-1.16 1.949-2.33 2.928-3.491.925 1.98 1.911 3.923 3.145 5.744.787 1.165 1.797 2.481 3.01 3.384-.724.772-1.456 1.541-2.2 2.295zm3.583-3.831c-1.244-1.264-2.569-2.445-3.666-3.903-1.117-1.487-2.097-3.075-3.043-4.68.728-.864 1.451-1.734 2.179-2.598 1.214 3.358 3.104 7.61 6.141 9.259-.535.642-1.045 1.29-1.611 1.922zm2.546-3.038c-.842-1.59-2.285-2.896-3.336-4.354-1.095-1.519-2.014-3.173-2.849-4.85 1.089-1.295 2.183-2.583 3.263-3.89 1.815 3.079 3.711 6.111 5.841 9.005-.849 1.386-1.851 2.745-2.919 4.089zm4.784-7.624c-.231.538-.552 1.067-.827 1.601-7.554-18.215-18.389-37.612-31.96-52.227 3.665 2.193 7.355 4.342 11.037 6.504 5.322 13.519 12.106 30.143 22.998 39.971.056.051.124.043.186.072a33.317 33.317 0 01-1.434 4.079zm1.839-5.826c-7.703-12.396-15.252-24.374-21.984-37.35a719.906 719.906 0 0015.618 8.864c.005.022-.013.038-.004.061 1.862 4.938 3.573 10.602 6.308 15.114.244.405.691.438 1.03.263.149 4.367.028 8.686-.968 13.048z"/><path d="M163.998 53.633c-2.8-4.565-5.854-8.965-8.896-13.37-.422-.611-1.394-.068-1.008.589 2.407 4.095 4.882 8.149 7.291 12.242 2.289 3.887 3.995 8.379 6.653 11.994.555.755 1.801.331 1.559-.657-.957-3.891-3.523-7.412-5.599-10.798zM126.076 158.391c-6.52-7.319-12.531-14.804-18.625-22.487-.344-.434-1.064.133-.763.59 5.235 7.943 10.79 17.258 18.464 23.095.723.55 1.468-.587.924-1.198z"/></svg><svg viewBox="0 0 512 512" id="down-arrow-svgrepo-com" xmlns="http://www.w3.org/2000/svg"><path d="M480.6 111.5h-74.1V35.6c0-10.7-8.3-19.6-19-20.4-104-7.5-200.4-3.7-263 .8-10.7.8-19 9.8-19 20.5v74.9H31.4c-10.9 0-20.9 8.8-20.6 22 40.6 166 230.9 361.7 230.9 361.7 9.8 10.8 25.6 4 28.6 0 0 0 177.1-165.8 230.3-359.4 1.6-5.8-.5-24.3-20-24.2z"/></svg><svg viewBox="0 0 124.075 124.075" id="down-arrow-svgrepo-com_(1)" xmlns="http://www.w3.org/2000/svg"><path d="M54.628 120.7c3.5 4.5 10.2 4.5 13.601 0l44.1-54.9c4.4-5.7.4-13.8-6.8-13.8h-14.7c-4.7 0-8.2-4.2-8.2-9V8.6c0-4.8-4.2-8.6-9-8.6h-23.1c-4.8 0-8.9 3.8-8.9 8.6V43c0 4.7-3.6 9-8.3 9h-14.8c-7.1 0-11.2 8-6.8 13.7l42.899 55z"/></svg><svg viewBox="0 0 287.862 287.862" id="down-arrow-svgrepo-com_(2)" xmlns="http://www.w3.org/2000/svg"><path d="M276.012 5.128c-2.448-6.732-12.853-6.732-14.688-.612C247.86-.379 220.32 32.057 211.751 39.4c-15.3 12.852-30.6 25.092-47.124 36.108-15.911 10.404-22.032 12.24-37.332.612-26.928-21.42-50.796-47.124-80.784-64.26-6.732-3.672-40.392-13.464-33.66 5.508v.612c-2.448 1.224-3.672 3.672-2.448 7.344 42.228 85.068 80.172 174.419 127.296 258.263 2.448 4.284 9.792 6.12 12.853 1.836 39.168-49.571 54.468-110.771 82.619-166.463C247.86 90.197 287.028 39.4 276.012 5.128zM125.459 115.289l-1.224 1.224-1.836-1.836c-1.224-1.836-1.836-3.06-3.06-4.896 1.836 1.224 3.06 2.448 4.896 3.672.612.611 1.224 1.224 1.224 1.836z"/></svg><svg viewBox="0 0 16 16" id="github-logo" xmlns="http://www.w3.org/2000/svg"><path d="M8 0C3.58 0 0 3.58 0 8c0 3.54 2.29 6.53 5.47 7.59.4.07.55-.17.55-.38 0-.19-.01-.82-.01-1.49-2.01.37-2.53-.49-2.69-.94-.09-.23-.48-.94-.82-1.13-.28-.15-.68-.52-.01-.53.63-.01 1.08.58 1.23.82.72 1.21 1.87.87 2.33.66.07-.52.28-.87.51-1.07-1.78-.2-3.64-.89-3.64-3.95 0-.87.31-1.59.82-2.15-.08-.2-.36-1.02.08-2.12 0 0 .67-.21 2.2.82.64-.18 1.32-.27 2-.27.68 0 1.36.09 2 .27 1.53-1.04 2.2-.82 2.2-.82.44 1.1.16 1.92.08 2.12.51.56.82 1.27.82 2.15 0 3.07-1.87 3.75-3.65 3.95.29.25.54.73.54 1.48 0 1.07-.01 1.93-.01 2.2 0 .21.15.46.55.38A8.013 8.013 0 0016 8c0-4.42-3.58-8-8-8z"/></svg><svg fill="none" viewBox="0 0 13 12" id="logo" xmlns="http://www.w3.org/2000/svg"><path d="M5.063 8.24c0-.328.11-.603.333-.826a1.15 1.15 0 01.844-.351h2.69l-.457-1.301a31.83 31.83 0 00-.563-1.354 6.557 6.557 0 00-.615-1.178c-.211-.351-.451-.539-.72-.562-.282.023-.534.21-.757.562a8.516 8.516 0 00-.615 1.178c-.176.422-.357.873-.545 1.354l-1.67 4.57c-.117.246-.27.451-.457.615-.176.153-.445.229-.808.229-.34 0-.621-.117-.844-.352a1.093 1.093 0 01-.281-.844c.011-.152.047-.293.105-.421l1.934-4.993c.539-1.312 1.078-2.373 1.617-3.181C4.78.588 5.554.184 6.574.172 7.582.184 8.35.588 8.877 1.385c.539.785 1.078 1.845 1.617 3.181l1.934 4.993c.058.129.093.27.105.421.024.329-.076.61-.299.844a1.06 1.06 0 01-.826.352c-.386 0-.674-.076-.861-.229a2.015 2.015 0 01-.44-.615l-.334-.914H6.24c-.328 0-.603-.117-.826-.352a1.094 1.094 0 01-.351-.826z" fill="#34547A"/></svg><svg fill="none" viewBox="0 0 13 12" id="logo-icon" xmlns="http://www.w3.org/2000/svg"><path d="M5.063 8.24c0-.328.11-.603.333-.826a1.15 1.15 0 01.844-.351h2.69l-.457-1.301a31.83 31.83 0 00-.563-1.354 6.557 6.557 0 00-.615-1.178c-.211-.351-.451-.539-.72-.562-.282.023-.534.21-.757.562a8.516 8.516 0 00-.615 1.178c-.176.422-.357.873-.545 1.354l-1.67 4.57c-.117.246-.27.451-.457.615-.176.153-.445.229-.808.229-.34 0-.621-.117-.844-.352a1.093 1.093 0 01-.281-.844c.011-.152.047-.293.105-.421l1.934-4.993c.539-1.312 1.078-2.373 1.617-3.181C4.78.588 5.554.184 6.574.172 7.582.184 8.35.588 8.877 1.385c.539.785 1.078 1.845 1.617 3.181l1.934 4.993c.058.129.093.27.105.421.024.329-.076.61-.299.844a1.06 1.06 0 01-.826.352c-.386 0-.674-.076-.861-.229a2.015 2.015 0 01-.44-.615l-.334-.914H6.24c-.328 0-.603-.117-.826-.352a1.094 1.094 0 01-.351-.826z" fill="#fff" stroke="#34547A"/></svg><svg fill="none" viewBox="0 0 109 12" id="logo-lg" xmlns="http://www.w3.org/2000/svg"><path d="M5.063 8.24c0-.328.11-.603.333-.826a1.15 1.15 0 01.844-.351h2.69l-.457-1.301a31.83 31.83 0 00-.563-1.354 6.557 6.557 0 00-.615-1.178c-.211-.351-.451-.539-.72-.562-.282.023-.534.21-.757.562a8.516 8.516 0 00-.615 1.178c-.176.422-.357.873-.545 1.354l-1.67 4.57c-.117.246-.27.451-.457.615-.176.153-.445.229-.808.229-.34 0-.621-.117-.844-.352a1.093 1.093 0 01-.281-.844c.011-.152.047-.293.105-.421l1.934-4.993c.539-1.312 1.078-2.373 1.617-3.181C4.78.588 5.554.184 6.574.172 7.582.184 8.35.588 8.877 1.385c.539.785 1.078 1.845 1.617 3.181l1.934 4.993c.058.129.093.27.105.421.024.329-.076.61-.299.844a1.06 1.06 0 01-.826.352c-.386 0-.674-.076-.861-.229a2.015 2.015 0 01-.44-.615l-.334-.914H6.24c-.328 0-.603-.117-.826-.352a1.094 1.094 0 01-.351-.826zm14.835-5.52a7.656 7.656 0 013.498.844c.54.27 1.014.633 1.424 1.09.422.457.65 1.002.686 1.635V10.033c-.07.703-.457 1.084-1.16 1.143-.328 0-.616-.106-.862-.317a1.094 1.094 0 01-.351-.826V6.834a1.275 1.275 0 00-.422-.896 2.781 2.781 0 00-.844-.58 4.451 4.451 0 00-.967-.317 4.768 4.768 0 00-1.002-.105c-.34 0-.68.035-1.02.105-.327.07-.65.176-.966.316a3.1 3.1 0 00-.844.58c-.246.235-.38.534-.404.897V10.033c-.059.703-.44 1.084-1.143 1.143-.328 0-.615-.106-.86-.317a1.094 1.094 0 01-.352-.826V6.29a2.59 2.59 0 01.668-1.635c.41-.457.884-.82 1.423-1.09a7.338 7.338 0 011.688-.632 7.88 7.88 0 011.81-.211zm11.479 8.245c-1.031-.035-1.81-.275-2.338-.72-.527-.458-.908-.968-1.143-1.53a4.57 4.57 0 01-.351-1.74c0-.61.111-1.196.334-1.758.234-.574.615-1.084 1.142-1.53.54-.457 1.22-.69 2.04-.703h5.695c.82.012 1.494.246 2.021.704.54.445.92.955 1.143 1.529a4.526 4.526 0 010 3.498c-.235.562-.615 1.072-1.143 1.53-.527.445-1.306.685-2.337.72h-5.063zM30.99 5.34a.749.749 0 00-.58.281 1.702 1.702 0 00-.369.633c-.07.234-.105.469-.105.703 0 .246.035.492.105.738.082.235.205.446.37.633.163.176.357.27.58.281h5.835a.832.832 0 00.58-.28c.164-.188.282-.4.352-.634.082-.246.123-.492.123-.738 0-.234-.041-.469-.123-.703a1.526 1.526 0 00-.352-.633.749.749 0 00-.58-.281H30.99zm21.094-3.885c.07-.703.457-1.084 1.16-1.143.328 0 .61.112.844.334.246.211.369.48.369.81v8.366a1.154 1.154 0 01-.37.826 1.217 1.217 0 01-.843.317h-7.383c-1.03-.035-1.81-.275-2.338-.72-.527-.458-.908-.968-1.142-1.53a4.57 4.57 0 01-.352-1.74c0-.61.112-1.196.334-1.758.235-.574.615-1.084 1.143-1.53.539-.457 1.219-.69 2.039-.703h4.43c.328 0 .603.118.826.352.234.223.351.498.351.826 0 .328-.117.61-.351.844a1.122 1.122 0 01-.826.334h-4.5a.749.749 0 00-.58.281 1.703 1.703 0 00-.37.633c-.07.234-.105.469-.105.703 0 .246.035.492.105.738.082.235.206.446.37.633.164.176.357.27.58.281h6.152c.305-.011.457-.164.457-.457V1.455zm8.332 9.51c-1.031-.035-1.81-.275-2.338-.72-.527-.458-.908-.968-1.143-1.53a4.572 4.572 0 01-.351-1.74c0-.61.111-1.196.334-1.758.234-.574.615-1.084 1.142-1.53.54-.457 1.22-.69 2.04-.703h5.695c.82.012 1.494.246 2.021.704.54.445.92.955 1.143 1.529a4.526 4.526 0 010 3.498c-.234.562-.615 1.072-1.143 1.53-.527.445-1.306.685-2.338.72h-5.062zm-.387-5.625a.749.749 0 00-.58.281 1.703 1.703 0 00-.369.633c-.07.234-.105.469-.105.703 0 .246.035.492.105.738.082.235.205.446.37.633.163.176.357.27.58.281h5.835a.832.832 0 00.58-.28c.164-.188.282-.4.352-.634.082-.246.123-.492.123-.738 0-.234-.041-.469-.123-.703a1.526 1.526 0 00-.352-.633.749.749 0 00-.58-.281H60.03zm11.672-.14c.223-.563.598-1.067 1.125-1.513.54-.457 1.219-.69 2.04-.703h6.609c.328 0 .603.118.826.352.234.223.351.498.351.826 0 .328-.117.61-.351.844a1.122 1.122 0 01-.826.334h-6.68a.749.749 0 00-.58.281 1.916 1.916 0 00-.387.633c-.082.246-.123.48-.123.703v3.076c-.07.703-.457 1.084-1.16 1.143-.328 0-.615-.106-.861-.317a1.094 1.094 0 01-.352-.826V6.975h.018c0-.61.117-1.202.351-1.776zm16.295 5.765c-1.031-.035-1.81-.275-2.338-.72-.527-.458-.908-.968-1.142-1.53a4.57 4.57 0 01-.352-1.74c0-.61.111-1.196.334-1.758.234-.574.615-1.084 1.143-1.53.539-.457 1.218-.69 2.039-.703h6.68c.328 0 .603.112.826.334.234.211.351.47.351.774 0 .316-.117.586-.352.808-.222.211-.498.317-.826.317h-6.574c-.258 0-.486.088-.685.263a1.622 1.622 0 00-.422.686 2.943 2.943 0 000 1.688c.094.28.234.51.422.685.199.164.427.252.685.264h6.574c.329 0 .604.105.827.316.234.211.351.463.351.756 0 .305-.117.563-.352.773a1.155 1.155 0 01-.826.317h-6.363zm7.33-4.026c0 .223-.1.416-.299.58a.983.983 0 01-.668.229h-5.748c-.27 0-.498-.076-.685-.228a.749.749 0 01-.282-.58c0-.211.094-.399.282-.563.187-.152.416-.229.685-.229h5.748c.27 0 .498.082.686.247.187.152.281.334.281.544zm5.836 4.026c-1.031-.035-1.81-.275-2.338-.72-.527-.458-.908-.968-1.142-1.53a4.572 4.572 0 01-.352-1.74c0-.61.111-1.196.334-1.758.234-.574.615-1.084 1.143-1.53.539-.457 1.218-.69 2.039-.703h6.679c.329 0 .604.112.827.334.234.211.351.47.351.774 0 .316-.117.586-.351.808-.223.211-.498.317-.827.317h-6.574c-.258 0-.486.088-.685.263a1.617 1.617 0 00-.422.686 2.94 2.94 0 000 1.688c.094.28.234.51.422.685.199.164.427.252.685.264h6.574c.329 0 .604.105.827.316.234.211.351.463.351.756 0 .305-.117.563-.351.773a1.156 1.156 0 01-.827.317h-6.363zm7.33-4.026c0 .223-.099.416-.299.58a.981.981 0 01-.668.229h-5.748a1.05 1.05 0 01-.685-.228.747.747 0 01-.281-.58c0-.211.093-.399.281-.563a1.05 1.05 0 01.685-.229h5.748c.27 0 .498.082.686.247.187.152.281.334.281.544z" fill="#34547A"/></svg></svg>